<?xml version="1.0" encoding="UTF-8"?>
<svg id="Layer_1" xmlns="http://www.w3.org/2000/svg" version="1.1" viewBox="0 0 80 100">
  <!-- Generator: Adobe Illustrator 29.1.0, SVG Export Plug-In . SVG Version: 2.1.0 Build 142)  -->
  <defs>
    <style>
      .st0 {
        font-family: RocGrotesk-WideHeavy, 'Roc Grotesk';
        font-size: 22.6px;
        font-weight: 800;
        letter-spacing: 0em;
      }
    </style>
  </defs>
  <g>
    <g>
      <path d="M63.2,1.6v9.1c0,7.2-2.1,8-3.9,8s-2.8-.4-3.2-2.9h0c-.3,2.9-2,3.5-3.4,3.5-2.4,0-4.3-1.2-4.3-8.1V1.6h14.9ZM52.8,10.5c0,.9.4,1.1.9,1.1s.8-.2.8-1.2v-.5h-1.6v.5ZM57,10.5c0,.8.2,1.1.8,1.1s.8-.4.8-1.1v-.5h-1.6v.5Z"/>
      <path d="M63.2,21.3v8.3h-14.9v-8.3h14.9Z"/>
      <path d="M63.2,31.7v9.3c0,6.7-1.9,8.8-4.7,8.8s-3-.6-3.5-3.1h0c-.4,2.6-1.9,3.1-3.4,3.1h-3.2v-8.3h3.7c.7,0,1-.4,1-.9v-.5h-4.6v-8.3h14.9ZM55.9,40.8c0,.7.3,1,.8,1s.9-.2.9-1.1v-.7h-1.7v.8Z"/>
      <path d="M63.2,51.6v8.4c0,7.5-3.2,9.9-7.4,9.9s-7.5-2.4-7.5-9.1v-9.1h14.9ZM53.8,60.5c0,.8.7,1.2,1.9,1.2s1.9-.3,1.9-1.1v-.6h-3.8v.6Z"/>
      <path d="M53.3,71.6v7.2c-.7,0-1.2.3-1.2,1.5s.5,1.2.7,1.2.5-.2.6-.6c0-.5.2-1.7.3-3,.1-1.2.4-3.3,1-4.5.6-1.2,1.7-1.9,3.3-1.9,3.1,0,5.4,2.8,5.4,9.3s-2.4,8.8-5.1,8.8v-6.7c.6,0,1.1-.5,1.1-1.5s-.4-1.3-.7-1.3-.4,0-.5.4c-.1.4-.2,1.5-.4,3.1-.2,2.1-.4,3.4-.8,4.4-.6,1.4-1.7,2.2-3.4,2.2-2.6,0-5.6-1.2-5.6-9.5s3.2-9.1,5.3-9.1Z"/>
      <path d="M53.6,92.2v6.2h-5.3v-6.2h5.3ZM60.4,92.2h3.1v6.2h-3.1l-6.1-1.7v-2.9l6.1-1.7Z"/>
    </g>
    <g>
      <path d="M79,1.6v9.1c0,7.2-2.1,8-3.9,8s-2.8-.4-3.2-2.9h0c-.3,2.9-2,3.5-3.4,3.5-2.4,0-4.3-1.2-4.3-8.1V1.6h14.9ZM68.6,10.5c0,.9.4,1.1.9,1.1s.8-.2.8-1.2v-.5h-1.6v.5ZM72.8,10.5c0,.8.2,1.1.8,1.1s.8-.4.8-1.1v-.5h-1.6v.5Z"/>
      <path d="M79,21.3v8.3h-14.9v-8.3h14.9Z"/>
      <path d="M79,31.7v9.3c0,6.7-1.9,8.8-4.7,8.8s-3-.6-3.5-3.1h0c-.4,2.6-1.9,3.1-3.4,3.1h-3.2v-8.3h3.7c.7,0,1-.4,1-.9v-.5h-4.6v-8.3h14.9ZM71.7,40.8c0,.7.3,1,.8,1s.9-.2.9-1.1v-.7h-1.7v.8Z"/>
      <path d="M79,51.6v8.4c0,7.5-3.2,9.9-7.4,9.9s-7.5-2.4-7.5-9.1v-9.1h14.9ZM69.7,60.5c0,.8.7,1.2,1.9,1.2s1.9-.3,1.9-1.1v-.6h-3.8v.6Z"/>
      <path d="M69.1,71.6v7.2c-.7,0-1.2.3-1.2,1.5s.5,1.2.7,1.2.5-.2.6-.6c0-.5.2-1.7.3-3,.1-1.2.4-3.3,1-4.5.6-1.2,1.7-1.9,3.3-1.9,3.1,0,5.4,2.8,5.4,9.3s-2.4,8.8-5.1,8.8v-6.7c.6,0,1.1-.5,1.1-1.5s-.4-1.3-.7-1.3-.4,0-.5.4c-.1.4-.2,1.5-.4,3.1-.2,2.1-.4,3.4-.8,4.4-.6,1.4-1.7,2.2-3.4,2.2-2.6,0-5.6-1.2-5.6-9.5s3.2-9.1,5.3-9.1Z"/>
      <path d="M69.4,92.2v6.2h-5.3v-6.2h5.3ZM76.2,92.2h3.1v6.2h-3.1l-6.1-1.7v-2.9l6.1-1.7Z"/>
    </g>
    <g>
      <path d="M47.4,1.6v9.1c0,7.2-2.1,8-3.9,8s-2.8-.4-3.2-2.9h0c-.3,2.9-2,3.5-3.4,3.5-2.4,0-4.3-1.2-4.3-8.1V1.6h14.9ZM37,10.5c0,.9.4,1.1.9,1.1s.8-.2.8-1.2v-.5h-1.6v.5ZM41.2,10.5c0,.8.2,1.1.8,1.1s.8-.4.8-1.1v-.5h-1.6v.5Z"/>
      <path d="M47.4,21.3v8.3h-14.9v-8.3h14.9Z"/>
      <path d="M47.4,31.7v9.3c0,6.7-1.9,8.8-4.7,8.8s-3-.6-3.5-3.1h0c-.4,2.6-1.9,3.1-3.4,3.1h-3.2v-8.3h3.7c.7,0,1-.4,1-.9v-.5h-4.6v-8.3h14.9ZM40.1,40.8c0,.7.3,1,.8,1s.9-.2.9-1.1v-.7h-1.7v.8Z"/>
      <path d="M47.4,51.6v8.4c0,7.5-3.2,9.9-7.4,9.9s-7.5-2.4-7.5-9.1v-9.1h14.9ZM38.1,60.5c0,.8.7,1.2,1.9,1.2s1.9-.3,1.9-1.1v-.6h-3.8v.6Z"/>
      <path d="M37.5,71.6v7.2c-.7,0-1.2.3-1.2,1.5s.5,1.2.7,1.2.5-.2.6-.6c0-.5.2-1.7.3-3,.1-1.2.4-3.3,1-4.5.6-1.2,1.7-1.9,3.3-1.9,3.1,0,5.4,2.8,5.4,9.3s-2.4,8.8-5.1,8.8v-6.7c.6,0,1.1-.5,1.1-1.5s-.4-1.3-.7-1.3-.4,0-.5.4c-.1.4-.2,1.5-.4,3.1-.2,2.1-.4,3.4-.8,4.4-.6,1.4-1.7,2.2-3.4,2.2-2.6,0-5.6-1.2-5.6-9.5s3.2-9.1,5.3-9.1Z"/>
      <path d="M37.8,92.2v6.2h-5.3v-6.2h5.3ZM44.6,92.2h3.1v6.2h-3.1l-6.1-1.7v-2.9l6.1-1.7Z"/>
    </g>
    <g>
      <path d="M31.6,1.6v9.1c0,7.2-2.1,8-3.9,8s-2.8-.4-3.2-2.9h0c-.3,2.9-2,3.5-3.4,3.5-2.4,0-4.3-1.2-4.3-8.1V1.6h14.9ZM21.3,10.5c0,.9.4,1.1.9,1.1s.8-.2.8-1.2v-.5h-1.6v.5ZM25.4,10.5c0,.8.2,1.1.8,1.1s.8-.4.8-1.1v-.5h-1.6v.5Z"/>
      <path d="M31.6,21.3v8.3h-14.9v-8.3h14.9Z"/>
      <path d="M31.6,31.7v9.3c0,6.7-1.9,8.8-4.7,8.8s-3-.6-3.5-3.1h0c-.4,2.6-1.9,3.1-3.4,3.1h-3.2v-8.3h3.7c.7,0,1-.4,1-.9v-.5h-4.6v-8.3h14.9ZM24.3,40.8c0,.7.3,1,.8,1s.9-.2.9-1.1v-.7h-1.7v.8Z"/>
      <path d="M31.6,51.6v8.4c0,7.5-3.2,9.9-7.4,9.9s-7.5-2.4-7.5-9.1v-9.1h14.9ZM22.3,60.5c0,.8.7,1.2,1.9,1.2s1.9-.3,1.9-1.1v-.6h-3.8v.6Z"/>
      <path d="M21.7,71.6v7.2c-.7,0-1.2.3-1.2,1.5s.5,1.2.7,1.2.5-.2.6-.6c0-.5.2-1.7.3-3,.1-1.2.4-3.3,1-4.5.6-1.2,1.7-1.9,3.3-1.9,3.1,0,5.4,2.8,5.4,9.3s-2.4,8.8-5.1,8.8v-6.7c.6,0,1.1-.5,1.1-1.5s-.4-1.3-.7-1.3-.4,0-.5.4c-.1.4-.2,1.5-.4,3.1-.2,2.1-.4,3.4-.8,4.4-.6,1.4-1.7,2.2-3.4,2.2-2.6,0-5.6-1.2-5.6-9.5s3.2-9.1,5.3-9.1Z"/>
      <path d="M22,92.2v6.2h-5.3v-6.2h5.3ZM28.8,92.2h3.1v6.2h-3.1l-6.1-1.7v-2.9l6.1-1.7Z"/>
    </g>
    <g>
      <path d="M15.9,1.6v9.1c0,7.2-2.1,8-3.9,8s-2.8-.4-3.2-2.9h0c-.3,2.9-2,3.5-3.4,3.5-2.4,0-4.3-1.2-4.3-8.1V1.6h14.9ZM5.5,10.5c0,.9.4,1.1.9,1.1s.8-.2.8-1.2v-.5h-1.6v.5ZM9.7,10.5c0,.8.2,1.1.8,1.1s.8-.4.8-1.1v-.5h-1.6v.5Z"/>
      <path d="M15.9,21.3v8.3H1v-8.3h14.9Z"/>
      <path d="M15.9,31.7v9.3c0,6.7-1.9,8.8-4.7,8.8s-3-.6-3.5-3.1h0c-.4,2.6-1.9,3.1-3.4,3.1H1v-8.3h3.7c.7,0,1-.4,1-.9v-.5H1v-8.3h14.9ZM8.6,40.8c0,.7.3,1,.8,1s.9-.2.9-1.1v-.7h-1.7v.8Z"/>
      <path d="M15.9,51.6v8.4c0,7.5-3.2,9.9-7.4,9.9s-7.5-2.4-7.5-9.1v-9.1h14.9ZM6.5,60.5c0,.8.7,1.2,1.9,1.2s1.9-.3,1.9-1.1v-.6h-3.8v.6Z"/>
      <path d="M6,71.6v7.2c-.7,0-1.2.3-1.2,1.5s.5,1.2.7,1.2.5-.2.6-.6c0-.5.2-1.7.3-3,.1-1.2.4-3.3,1-4.5.6-1.2,1.7-1.9,3.3-1.9,3.1,0,5.4,2.8,5.4,9.3s-2.4,8.8-5.1,8.8v-6.7c.6,0,1.1-.5,1.1-1.5s-.4-1.3-.7-1.3-.4,0-.5.4c-.1.4-.2,1.5-.4,3.1-.2,2.1-.4,3.4-.8,4.4-.6,1.4-1.7,2.2-3.4,2.2-2.6,0-5.6-1.2-5.6-9.5s3.2-9.1,5.3-9.1Z"/>
      <path d="M6.3,92.2v6.2H1v-6.2h5.3ZM13.1,92.2h3.1v6.2h-3.1l-6.1-1.7v-2.9l6.1-1.7Z"/>
    </g>
  </g>
  <text class="st0" transform="translate(147.8 1) rotate(90)"><tspan x="0" y="0">BIRDS!</tspan></text>
  <text class="st0" transform="translate(163.6 1) rotate(90)"><tspan x="0" y="0">BIRDS!</tspan></text>
  <text class="st0" transform="translate(132 1) rotate(90)"><tspan x="0" y="0">BIRDS!</tspan></text>
  <text class="st0" transform="translate(116.2 1) rotate(90)"><tspan x="0" y="0">BIRDS!</tspan></text>
  <text class="st0" transform="translate(100.5 1) rotate(90)"><tspan x="0" y="0">BIRDS!</tspan></text>
</svg>