<?xml version="1.0" encoding="UTF-8"?>
<svg id="Layer_1" xmlns="http://www.w3.org/2000/svg" version="1.1" viewBox="0 0 80 100">
  <!-- Generator: Adobe Illustrator 29.1.0, SVG Export Plug-In . SVG Version: 2.1.0 Build 142)  -->
  <defs>
    <style>
      .st0 {
        fill: #280018;
      }
    </style>
  </defs>
  <path class="st0" d="M7.1,73.9c.6,1.3,1.9,2.2,3.3,2.2h4.3c3.9,0,7.5-1.5,10.2-4.2l8.8-8.8,10.8,10.8c.3.3.8.5,1.2.5s.9-.2,1.2-.5c.7-.7.7-1.8,0-2.5l-8.2-8.2c1.1.3,2.2.5,3.4.5.7,0,1.4,0,2,0s1.4,0,2,0c0,0,0,0,0,0l10.1,10.1c.3.3.8.5,1.2.5s.9-.2,1.2-.5c.7-.7.7-1.8,0-2.5l-8.3-8.3c4.9-1.2,8.9-3.8,11.7-7.9,3.2-4.6,5.1-12.3,6-16.5l4.3-3.1c.5-.4.7-1.1.5-1.7-.2-.6-.8-1-1.5-1h-3.4c0,0-.1,0-.2,0-2.5-6.2-8.3-9-13-9-5.1,0-9.3,1.9-13.5,6.1l-21.5,21.5c-.8.8-1,2-.6,3,.4,1,1.3,1.6,2.3,1.7l-14,14c-1,1-1.3,2.6-.8,3.9ZM31.8,56.1h13c6.3,0,11.4-5.1,11.4-11.4,0-1-.8-1.7-1.7-1.7s-1.7.8-1.7,1.7c0,4.4-3.6,7.9-7.9,7.9h-21s20.2-20.2,20.2-20.2c3.5-3.5,6.8-5.1,11-5.1s8.7,2.5,10.2,8.1c-.3,2-2.3,12.6-5.9,17.7-3.6,5.2-9.2,7.5-17,7.1-4.2-.2-8.1-2.5-10.6-4.2ZM10.4,72.5l16.4-16.4c0,0,0,.1.1.2l4.4,4.4-8.8,8.8c-2.1,2.1-4.8,3.2-7.8,3.2h-4.3s0,0,0,0c0,0,0,0,0-.1Z"/>
  <circle class="st0" cx="57.6" cy="35.2" r="2.5" transform="translate(-9.1 24.7) rotate(-22.5)"/>
</svg>